<svg width="120" height="24" viewBox="0 0 120 24" fill="none" xmlns="http://www.w3.org/2000/svg">
<path d="M12.6241 17.7067C12.2382 17.5035 11.777 17.5033 11.3908 17.7061L6.79144 20.1218C6.77185 20.1321 6.75949 20.1325 6.75122 20.1317C6.74038 20.1307 6.72634 20.1262 6.71246 20.1161C6.69858 20.106 6.68993 20.0941 6.68562 20.084C6.68233 20.0764 6.6789 20.0645 6.68264 20.0427L7.56092 14.9281C7.63484 14.4976 7.49188 14.0584 7.17875 13.7539L3.45512 10.133C3.43923 10.1176 3.43502 10.106 3.4332 10.0979C3.4308 10.0872 3.43076 10.0725 3.43607 10.0561C3.44138 10.0398 3.45008 10.0278 3.45826 10.0207C3.46449 10.0152 3.47473 10.0082 3.49666 10.0051L8.63528 9.26104C9.06693 9.19855 9.44018 8.92763 9.63337 8.5366L11.9331 3.88162C11.9428 3.8618 11.9526 3.85421 11.9598 3.84997C11.9691 3.84442 11.9831 3.83984 12.0003 3.83984C12.0175 3.83984 12.0315 3.84442 12.0408 3.84997C12.048 3.85421 12.0578 3.8618 12.0675 3.88162L14.3673 8.5366C14.5604 8.92763 14.9337 9.19855 15.3653 9.26104L20.504 10.0051C20.5259 10.0082 20.5361 10.0152 20.5424 10.0207C20.5505 10.0278 20.5592 10.0398 20.5645 10.0561C20.5699 10.0725 20.5698 10.0872 20.5674 10.0979C20.5656 10.106 20.5614 10.1176 20.5455 10.133L16.8219 13.7539C16.5087 14.0584 16.3658 14.4976 16.4397 14.9281L17.3177 20.0411C17.3214 20.0629 17.318 20.0748 17.3147 20.0824C17.3104 20.0924 17.3018 20.1044 17.2879 20.1145C17.274 20.1246 17.2599 20.1291 17.2491 20.1301C17.2408 20.1309 17.2284 20.1305 17.2088 20.1201L12.6241 17.7067Z" fill="#DEFDD4" stroke="#111111" stroke-width="1.25" stroke-linecap="round" stroke-linejoin="round"/>
<path d="M36.6241 17.7067C36.2382 17.5035 35.777 17.5033 35.3908 17.7061L30.7914 20.1218C30.7718 20.1321 30.7595 20.1325 30.7512 20.1317C30.7404 20.1307 30.7263 20.1262 30.7125 20.1161C30.6986 20.106 30.6899 20.0941 30.6856 20.084C30.6823 20.0764 30.6789 20.0645 30.6826 20.0427L31.5609 14.9281C31.6348 14.4976 31.4919 14.0584 31.1787 13.7539L27.4551 10.133C27.4392 10.1176 27.435 10.106 27.4332 10.0979C27.4308 10.0872 27.4308 10.0725 27.4361 10.0561C27.4414 10.0398 27.4501 10.0278 27.4583 10.0207C27.4645 10.0152 27.4747 10.0082 27.4967 10.0051L32.6353 9.26104C33.0669 9.19855 33.4402 8.92763 33.6334 8.5366L35.9331 3.88162C35.9428 3.8618 35.9526 3.85421 35.9598 3.84997C35.9691 3.84442 35.9831 3.83984 36.0003 3.83984C36.0175 3.83984 36.0315 3.84442 36.0408 3.84997C36.048 3.85421 36.0578 3.8618 36.0675 3.88162L38.3673 8.5366C38.5604 8.92763 38.9337 9.19855 39.3653 9.26104L44.504 10.0051C44.5259 10.0082 44.5361 10.0152 44.5424 10.0207C44.5505 10.0278 44.5592 10.0398 44.5645 10.0561C44.5699 10.0725 44.5698 10.0872 44.5674 10.0979C44.5656 10.106 44.5614 10.1176 44.5455 10.133L40.8219 13.7539C40.5087 14.0584 40.3658 14.4976 40.4397 14.9281L41.3177 20.0411C41.3214 20.0629 41.318 20.0748 41.3147 20.0824C41.3104 20.0924 41.3018 20.1044 41.2879 20.1145C41.274 20.1246 41.2599 20.1291 41.2491 20.1301C41.2408 20.1309 41.2284 20.1305 41.2088 20.1201L36.6241 17.7067Z" fill="#DEFDD4" stroke="#111111" stroke-width="1.25" stroke-linecap="round" stroke-linejoin="round"/>
<path d="M60.6241 17.7067C60.2382 17.5035 59.777 17.5033 59.3908 17.7061L54.7914 20.1218C54.7718 20.1321 54.7595 20.1325 54.7512 20.1317C54.7404 20.1307 54.7263 20.1262 54.7125 20.1161C54.6986 20.106 54.6899 20.0941 54.6856 20.084C54.6823 20.0764 54.6789 20.0645 54.6826 20.0427L55.5609 14.9281C55.6348 14.4976 55.4919 14.0584 55.1787 13.7539L51.4551 10.133C51.4392 10.1176 51.435 10.106 51.4332 10.0979C51.4308 10.0872 51.4308 10.0725 51.4361 10.0561C51.4414 10.0398 51.4501 10.0278 51.4583 10.0207C51.4645 10.0152 51.4747 10.0082 51.4967 10.0051L56.6353 9.26104C57.0669 9.19855 57.4402 8.92763 57.6334 8.5366L59.9331 3.88162C59.9428 3.8618 59.9526 3.85421 59.9598 3.84997C59.9691 3.84442 59.9831 3.83984 60.0003 3.83984C60.0175 3.83984 60.0315 3.84442 60.0408 3.84997C60.048 3.85421 60.0578 3.8618 60.0675 3.88162L62.3673 8.5366C62.5604 8.92763 62.9337 9.19855 63.3653 9.26104L68.504 10.0051C68.5259 10.0082 68.5361 10.0152 68.5424 10.0207C68.5505 10.0278 68.5592 10.0398 68.5645 10.0561C68.5699 10.0725 68.5698 10.0872 68.5674 10.0979C68.5656 10.106 68.5614 10.1176 68.5455 10.133L64.8219 13.7539C64.5087 14.0584 64.3658 14.4976 64.4397 14.9281L65.3177 20.0411C65.3214 20.0629 65.318 20.0748 65.3147 20.0824C65.3104 20.0924 65.3018 20.1044 65.2879 20.1145C65.274 20.1246 65.2599 20.1291 65.2491 20.1301C65.2408 20.1309 65.2284 20.1305 65.2088 20.1201L60.6241 17.7067Z" fill="#DEFDD4" stroke="#111111" stroke-width="1.25" stroke-linecap="round" stroke-linejoin="round"/>
<path d="M84.6241 17.7067C84.2382 17.5035 83.777 17.5033 83.3908 17.7061L78.7914 20.1218C78.7718 20.1321 78.7595 20.1325 78.7512 20.1317C78.7404 20.1307 78.7263 20.1262 78.7125 20.1161C78.6986 20.106 78.6899 20.0941 78.6856 20.084C78.6823 20.0764 78.6789 20.0645 78.6826 20.0427L79.5609 14.9281C79.6348 14.4976 79.4919 14.0584 79.1787 13.7539L75.4551 10.133C75.4392 10.1176 75.435 10.106 75.4332 10.0979C75.4308 10.0872 75.4308 10.0725 75.4361 10.0561C75.4414 10.0398 75.4501 10.0278 75.4583 10.0207C75.4645 10.0152 75.4747 10.0082 75.4967 10.0051L80.6353 9.26104C81.0669 9.19855 81.4402 8.92763 81.6334 8.5366L83.9331 3.88162C83.9428 3.8618 83.9526 3.85421 83.9598 3.84997C83.9691 3.84442 83.9831 3.83984 84.0003 3.83984C84.0175 3.83984 84.0315 3.84442 84.0408 3.84997C84.048 3.85421 84.0578 3.8618 84.0675 3.88162L86.3673 8.5366C86.5604 8.92763 86.9337 9.19855 87.3653 9.26104L92.504 10.0051C92.5259 10.0082 92.5361 10.0152 92.5424 10.0207C92.5505 10.0278 92.5592 10.0398 92.5645 10.0561C92.5699 10.0725 92.5698 10.0872 92.5674 10.0979C92.5656 10.106 92.5614 10.1176 92.5455 10.133L88.8219 13.7539C88.5087 14.0584 88.3658 14.4976 88.4397 14.9281L89.3177 20.0411C89.3214 20.0629 89.318 20.0748 89.3147 20.0824C89.3104 20.0924 89.3018 20.1044 89.2879 20.1145C89.274 20.1246 89.2599 20.1291 89.2491 20.1301C89.2408 20.1309 89.2284 20.1305 89.2088 20.1201L84.6241 17.7067Z" fill="#DEFDD4" stroke="#111111" stroke-width="1.25" stroke-linecap="round" stroke-linejoin="round"/>
<path d="M108.624 17.7067C108.238 17.5035 107.777 17.5033 107.391 17.7061L102.791 20.1218C102.772 20.1321 102.759 20.1325 102.751 20.1317C102.74 20.1307 102.726 20.1262 102.712 20.1161C102.699 20.106 102.69 20.0941 102.686 20.084C102.682 20.0764 102.679 20.0645 102.683 20.0427L103.561 14.9281C103.635 14.4976 103.492 14.0584 103.179 13.7539L99.4551 10.133C99.4392 10.1176 99.435 10.106 99.4332 10.0979C99.4308 10.0872 99.4308 10.0725 99.4361 10.0561C99.4414 10.0398 99.4501 10.0278 99.4583 10.0207C99.4645 10.0152 99.4747 10.0082 99.4967 10.0051L104.635 9.26104C105.067 9.19855 105.44 8.92763 105.633 8.5366L107.933 3.88162C107.943 3.8618 107.953 3.85421 107.96 3.84997C107.969 3.84442 107.983 3.83984 108 3.83984C108.018 3.83984 108.032 3.84442 108.041 3.84997C108.048 3.85421 108.058 3.8618 108.068 3.88162L110.367 8.5366C110.56 8.92763 110.934 9.19855 111.365 9.26104L116.504 10.0051C116.526 10.0082 116.536 10.0152 116.542 10.0207C116.551 10.0278 116.559 10.0398 116.565 10.0561C116.57 10.0725 116.57 10.0872 116.567 10.0979C116.566 10.106 116.561 10.1176 116.546 10.133L112.822 13.7539C112.509 14.0584 112.366 14.4976 112.44 14.9281L113.318 20.0411C113.321 20.0629 113.318 20.0748 113.315 20.0824C113.31 20.0924 113.302 20.1044 113.288 20.1145C113.274 20.1246 113.26 20.1291 113.249 20.1301C113.241 20.1309 113.228 20.1305 113.209 20.1201L108.624 17.7067Z" fill="#DEFDD4" stroke="#111111" stroke-width="1.25" stroke-linecap="round" stroke-linejoin="round"/>
</svg>
